<svg width="45" height="45" viewBox="0 0 45 45" fill="none" xmlns="http://www.w3.org/2000/svg">
<path d="M22.5 41.2502C17.5258 41.2547 12.7541 39.2807 9.23681 35.7634C5.71953 32.2462 3.74553 27.4744 3.75001 22.5002V22.1252C3.90336 14.6106 8.52713 7.91303 15.4994 5.10597C22.4717 2.29892 30.4464 3.92441 35.7638 9.23649C41.1309 14.5991 42.7372 22.6677 39.8331 29.677C36.9291 36.6863 30.0871 41.2547 22.5 41.2502ZM22.5 25.144L27.3563 30.0002L30 27.3565L25.1438 22.5002L30 17.644L27.3563 15.0002L22.5 19.8565L17.6438 15.0002L15 17.644L19.8563 22.5002L15 27.3565L17.6438 30.0002L22.5 25.1459V25.144Z" fill="#2E3A59"/>
</svg>
